<svg xmlns="http://www.w3.org/2000/svg" xmlns:svg="http://www.w3.org/2000/svg" id="svg8" width="890.725" height="175.51" version="1.1" viewBox="0 0 235.671 46.437"><defs id="defs2"><clipPath id="clipPath897" clipPathUnits="userSpaceOnUse"><path id="path895" d="M 0,612 H 792 V 0 H 0 Z"/></clipPath><clipPath id="clipPath905" clipPathUnits="userSpaceOnUse"><path id="path903" d="M 88.7056,372.784 H 736.229 V 350.541 H 88.7056 Z"/></clipPath><linearGradient id="linearGradient913" x1="0" x2="1" y1="0" y2="0" gradientTransform="matrix(641.49,0,0,641.49,88.7056,250.337)" gradientUnits="userSpaceOnUse" spreadMethod="pad"><stop style="stop-opacity:1;stop-color:#4f3058" id="stop907" offset="0"/><stop style="stop-opacity:1;stop-color:#a64061" id="stop909" offset=".5"/><stop style="stop-opacity:1;stop-color:#ee5658" id="stop911" offset="1"/></linearGradient><clipPath id="clipPath997" clipPathUnits="userSpaceOnUse"><path id="path995" d="M 0,612 H 792 V 0 H 0 Z"/></clipPath><clipPath id="clipPath1021" clipPathUnits="userSpaceOnUse"><path id="path1019" d="M 0,612 H 792 V 0 H 0 Z"/></clipPath><clipPath id="clipPath1133" clipPathUnits="userSpaceOnUse"><path id="path1131" d="M 0,449.52 H 792 V -10 H 0 Z"/></clipPath><clipPath id="clipPath1149" clipPathUnits="userSpaceOnUse"><path id="path1147" d="m 73.6223,366.294 h 9.2635 v -9.263 h -9.2635 z"/></clipPath><clipPath id="clipPath1165" clipPathUnits="userSpaceOnUse"><path id="path1163" d="m 58.4108,366.294 h 9.2635 v -9.263 h -9.2635 z"/></clipPath><clipPath id="clipPath1181" clipPathUnits="userSpaceOnUse"><path id="path1179" d="m 43.1993,366.294 h 9.2634 v -9.263 h -9.2634 z"/></clipPath><clipPath id="clipPath1205" clipPathUnits="userSpaceOnUse"><path id="path1203" d="M 0,612 H 792 V 0 H 0 Z"/></clipPath><clipPath id="clipPath1255" clipPathUnits="userSpaceOnUse"><path id="path1253" d="M 0,612 H 792 V 0 H 0 Z"/></clipPath><clipPath id="clipPath1307" clipPathUnits="userSpaceOnUse"><path id="path1305" d="M 0,612 H 792 V 0 H 0 Z"/></clipPath><clipPath id="clipPath1315" clipPathUnits="userSpaceOnUse"><path id="path1313" d="M 0,612 H 792 V 449.52 H 0 Z"/></clipPath></defs><metadata id="metadata5"/><g id="layer1" transform="translate(2.6836283,-141.03967)"><g id="g841" transform="matrix(0.35277777,0,0,-0.35277777,-33.866664,256.11666)"><g style="font-variant:normal;font-weight:500;font-stretch:normal;font-size:14.3053px;font-family:'Apex New Medium';-inkscape-font-specification:ApexNew-Medium;writing-mode:lr-tb;fill:#4f3058;fill-opacity:1;fill-rule:nonzero;stroke:none" id="text849" aria-label="CREATE A BRANCH" transform="scale(1,-1)"><path id="path1846" d="m 131.69152,-221.73453 q -0.38418,0.16764 -0.6985,0.31433 -0.30734,0.14668 -0.81026,0.30734 -0.42609,0.13271 -0.92901,0.22352 -0.49593,0.0978 -1.09664,0.0978 -1.13158,0 -2.06058,-0.31433 -0.92202,-0.32131 -1.60656,-0.99885 -0.67056,-0.66358 -1.04775,-1.68339 -0.37719,-1.0268 -0.37719,-2.38189 0,-1.28524 0.36322,-2.29807 0.36322,-1.01283 1.04775,-1.71133 0.66358,-0.67754 1.59957,-1.03378 0.94298,-0.35623 2.08852,-0.35623 0.8382,0 1.66942,0.20256 0.8382,0.20257 1.85801,0.71247 v 1.64148 h -0.10478 q -0.85915,-0.71946 -1.70434,-1.04775 -0.84518,-0.3283 -1.80912,-0.3283 -0.7893,0 -1.42494,0.25845 -0.62865,0.25146 -1.12458,0.78931 -0.48197,0.52387 -0.75438,1.32715 -0.26544,0.79629 -0.26544,1.84404 0,1.09665 0.29338,1.88595 0.30035,0.78931 0.76835,1.28524 0.48895,0.51689 1.13855,0.76835 0.65659,0.24448 1.38303,0.24448 0.99886,0 1.87199,-0.34227 0.87312,-0.34226 1.63449,-1.02679 h 0.0978 z"/><path id="path1848" d="m 142.00191,-220.98015 h -1.79515 l -3.47853,-4.13512 h -1.94882 v 4.13512 h -1.38303 v -10.40068 h 2.91275 q 0.94297,0 1.57162,0.12573 0.62865,0.11875 1.13157,0.43307 0.56579,0.35624 0.88012,0.90107 0.32131,0.53785 0.32131,1.36906 0,1.12459 -0.56579,1.88595 -0.56579,0.75438 -1.55766,1.13856 z m -3.23406,-7.47396 q 0,-0.44704 -0.16066,-0.7893 -0.15367,-0.34926 -0.51689,-0.58675 -0.30035,-0.20256 -0.71247,-0.2794 -0.41211,-0.0838 -0.97091,-0.0838 h -1.62751 v 3.92558 h 1.397 q 0.65659,0 1.14554,-0.11176 0.48895,-0.11875 0.83122,-0.43307 0.31432,-0.29337 0.46101,-0.67056 0.15367,-0.38418 0.15367,-0.97092 z"/><path id="path1850" d="m 150.66722,-220.98015 h -6.8523 v -10.40068 h 6.8523 v 1.22936 h -5.46926 v 2.84989 h 5.46926 v 1.22936 h -5.46926 v 3.86271 h 5.46926 z"/><path id="path1852" d="m 161.71718,-220.98015 h -1.47383 l -1.01981,-2.89878 h -4.49835 l -1.01981,2.89878 h -1.40399 l 3.78588,-10.40068 h 1.84404 z m -2.91973,-4.08623 -1.82309,-5.10604 -1.83007,5.10604 z"/><path id="path1854" d="m 170.46363,-230.15147 h -3.71603 v 9.17132 h -1.38303 v -9.17132 h -3.71603 v -1.22936 h 8.81509 z"/><path id="path1856" d="m 179.36365,-220.98015 h -6.8523 v -10.40068 h 6.8523 v 1.22936 h -5.46927 v 2.84989 h 5.46927 v 1.22936 h -5.46927 v 3.86271 h 5.46927 z"/><path id="path1858" d="m 194.51638,-220.98015 h -1.47384 l -1.01981,-2.89878 h -4.49835 l -1.01981,2.89878 h -1.40398 l 3.78587,-10.40068 h 1.84404 z m -2.91973,-4.08623 -1.82309,-5.10604 -1.83007,5.10604 z"/><path id="path1860" d="m 136.63853,-206.18323 q 0,0.77533 -0.29337,1.36906 -0.29337,0.59372 -0.78931,0.9779 -0.58674,0.46101 -1.29222,0.65659 -0.6985,0.19558 -1.78118,0.19558 h -3.68809 v -10.40068 h 3.08039 q 1.13856,0 1.70435,0.0838 0.56578,0.0838 1.08267,0.34925 0.57277,0.30036 0.83122,0.77534 0.25844,0.46799 0.25844,1.12458 0,0.74041 -0.37719,1.26429 -0.37719,0.51689 -1.00584,0.83122 v 0.0559 q 1.05474,0.21653 1.66243,0.929 0.6077,0.70549 0.6077,1.78817 z m -2.32601,-4.68695 q 0,-0.37719 -0.12573,-0.63563 -0.12573,-0.25845 -0.40513,-0.4191 -0.32829,-0.1886 -0.79629,-0.23051 -0.468,-0.0489 -1.15951,-0.0489 h -1.64846 v 3.00355 h 1.78816 q 0.6496,0 1.03378,-0.0629 0.38418,-0.0699 0.71247,-0.2794 0.3283,-0.20955 0.46101,-0.53785 0.1397,-0.33528 0.1397,-0.78931 z m 0.8871,4.74283 q 0,-0.62866 -0.1886,-0.99886 -0.18859,-0.37021 -0.68453,-0.62865 -0.33528,-0.17463 -0.81724,-0.22352 -0.47499,-0.0559 -1.15952,-0.0559 h -2.17233 v 3.86969 h 1.83007 q 0.90805,0 1.48781,-0.0908 0.57975,-0.0978 0.94996,-0.34925 0.39116,-0.27242 0.57277,-0.62167 0.18161,-0.34925 0.18161,-0.90106 z"/><path id="path1862" d="m 147.64821,-202.9841 h -1.79515 l -3.47853,-4.13513 h -1.94882 v 4.13513 h -1.38303 v -10.40068 h 2.91275 q 0.94297,0 1.57162,0.12573 0.62865,0.11875 1.13158,0.43307 0.56578,0.35624 0.88011,0.90107 0.32131,0.53784 0.32131,1.36906 0,1.12459 -0.56579,1.88595 -0.56578,0.75438 -1.55766,1.13856 z m -3.23406,-7.47396 q 0,-0.44704 -0.16066,-0.78931 -0.15367,-0.34925 -0.51689,-0.58674 -0.30035,-0.20256 -0.71247,-0.2794 -0.41211,-0.0838 -0.97091,-0.0838 h -1.62751 v 3.92558 h 1.397 q 0.65659,0 1.14554,-0.11176 0.48895,-0.11875 0.83122,-0.43307 0.31432,-0.29337 0.46101,-0.67056 0.15367,-0.38418 0.15367,-0.97092 z"/><path id="path1864" d="m 157.92055,-202.9841 h -1.47383 l -1.01981,-2.89878 h -4.49835 l -1.01981,2.89878 h -1.40399 l 3.78588,-10.40068 h 1.84404 z m -2.91973,-4.08623 -1.82309,-5.10604 -1.83007,5.10604 z"/><path id="path1866" d="m 168.34548,-202.9841 h -1.71133 l -4.93142,-9.30403 v 9.30403 h -1.29222 v -10.40068 h 2.14439 l 4.49835,8.49377 v -8.49377 h 1.29223 z"/><path id="path1868" d="m 179.3296,-203.73848 q -0.38417,0.16764 -0.6985,0.31432 -0.30734,0.14669 -0.81026,0.30734 -0.42608,0.13272 -0.929,0.22352 -0.49594,0.0978 -1.09665,0.0978 -1.13157,0 -2.06058,-0.31432 -0.92202,-0.32131 -1.60655,-0.99886 -0.67056,-0.66357 -1.04775,-1.68338 -0.37719,-1.0268 -0.37719,-2.38189 0,-1.28524 0.36322,-2.29807 0.36322,-1.01283 1.04775,-1.71133 0.66358,-0.67754 1.59957,-1.03378 0.94297,-0.35623 2.08851,-0.35623 0.83821,0 1.66942,0.20256 0.8382,0.20257 1.85801,0.71247 v 1.64148 h -0.10477 q -0.85916,-0.71946 -1.70434,-1.04775 -0.84519,-0.3283 -1.80912,-0.3283 -0.78931,0 -1.42494,0.25845 -0.62865,0.25146 -1.12459,0.7893 -0.48196,0.52388 -0.75438,1.32715 -0.26543,0.7963 -0.26543,1.84405 0,1.09664 0.29337,1.88595 0.30036,0.78931 0.76835,1.28524 0.48895,0.51689 1.13856,0.76835 0.65659,0.24448 1.38303,0.24448 0.99886,0 1.87198,-0.34227 0.87313,-0.34226 1.63449,-1.02679 h 0.0978 z"/><path id="path1870" d="m 188.99467,-202.9841 h -1.38304 v -5.09207 h -5.18986 v 5.09207 h -1.38303 v -10.40068 h 1.38303 v 4.07925 h 5.18986 v -4.07925 h 1.38304 z"/></g><g style="font-variant:normal;font-weight:500;font-stretch:normal;font-size:14.3053px;font-family:'Apex New Medium';-inkscape-font-specification:ApexNew-Medium;writing-mode:lr-tb;fill:#a64061;fill-opacity:1;fill-rule:nonzero;stroke:none" id="text865" aria-label="OPEN A PULL REQUEST" transform="scale(1,-1)"><path id="path1813" d="m 376.38431,-230.18639 q 0.63564,0.6985 0.97092,1.71133 0.34226,1.01282 0.34226,2.29806 0,1.28525 -0.34925,2.30506 -0.34226,1.01282 -0.96393,1.69037 -0.64262,0.70549 -1.52273,1.06172 -0.87313,0.35624 -1.99771,0.35624 -1.09665,0 -1.99772,-0.36322 -0.89408,-0.36322 -1.52273,-1.05474 -0.62865,-0.69152 -0.97092,-1.69736 -0.33528,-1.00584 -0.33528,-2.29807 0,-1.27127 0.33528,-2.27711 0.33528,-1.01283 0.97791,-1.73228 0.61468,-0.68453 1.52273,-1.04775 0.91503,-0.36322 1.99073,-0.36322 1.1176,0 2.00469,0.3702 0.89408,0.36322 1.51575,1.04077 z m -0.12573,4.00939 q 0,-2.02565 -0.90805,-3.12229 -0.90805,-1.10364 -2.47968,-1.10364 -1.5856,0 -2.49365,1.10364 -0.90106,1.09664 -0.90106,3.12229 0,2.04661 0.92202,3.13627 0.92202,1.08268 2.47269,1.08268 1.55067,0 2.46571,-1.08268 0.92202,-1.08966 0.92202,-3.13627 z"/><path id="path1815" d="m 386.65545,-228.23757 q 0,0.69151 -0.24448,1.28524 -0.23749,0.58674 -0.67056,1.01981 -0.53784,0.53785 -1.27127,0.81026 -0.73343,0.26543 -1.85103,0.26543 h -1.38303 v 3.87668 h -1.38303 v -10.40068 h 2.82194 q 0.93599,0 1.5856,0.16066 0.64961,0.15367 1.15253,0.48895 0.59372,0.39814 0.91503,0.99187 0.3283,0.59373 0.3283,1.50178 z m -1.43891,0.0349 q 0,-0.53784 -0.1886,-0.93599 -0.18859,-0.39815 -0.57277,-0.64961 -0.33528,-0.21653 -0.76835,-0.30734 -0.42609,-0.0978 -1.08268,-0.0978 h -1.36906 v 4.15608 h 1.1665 q 0.8382,0 1.36207,-0.14668 0.52388,-0.15367 0.85218,-0.48197 0.32829,-0.33528 0.46101,-0.70548 0.1397,-0.37021 0.1397,-0.83122 z"/><path id="path1817" d="m 396.57928,-220.98015 h -6.85229 v -10.40068 h 6.85229 v 1.22936 h -5.46926 v 2.84989 h 5.46926 v 1.22936 h -5.46926 v 3.86271 h 5.46926 z"/><path id="path1819" d="m 407.10773,-220.98015 h -1.71133 l -4.93141,-9.30403 v 9.30403 h -1.29223 v -10.40068 h 2.1444 l 4.49834,8.49377 v -8.49377 h 1.29223 z"/><path id="path1821" d="m 422.50817,-220.98015 h -1.47384 l -1.01981,-2.89878 h -4.49834 l -1.01982,2.89878 h -1.40398 l 3.78587,-10.40068 h 1.84404 z m -2.91973,-4.08623 -1.82309,-5.10604 -1.83007,5.10604 z"/><path id="path1823" d="m 435.9887,-228.23757 q 0,0.69151 -0.24447,1.28524 -0.23749,0.58674 -0.67057,1.01981 -0.53784,0.53785 -1.27127,0.81026 -0.73342,0.26543 -1.85102,0.26543 h -1.38304 v 3.87668 h -1.38303 v -10.40068 h 2.82195 q 0.93599,0 1.58559,0.16066 0.64961,0.15367 1.15253,0.48895 0.59372,0.39814 0.91504,0.99187 0.32829,0.59373 0.32829,1.50178 z m -1.43891,0.0349 q 0,-0.53784 -0.1886,-0.93599 -0.18859,-0.39815 -0.57277,-0.64961 -0.33528,-0.21653 -0.76835,-0.30734 -0.42608,-0.0978 -1.08267,-0.0978 h -1.36907 v 4.15608 h 1.1665 q 0.8382,0 1.36208,-0.14668 0.52387,-0.15367 0.85217,-0.48197 0.32829,-0.33528 0.46101,-0.70548 0.1397,-0.37021 0.1397,-0.83122 z"/><path id="path1825" d="m 446.9262,-225.15718 q 0,1.13157 -0.25146,1.97675 -0.24447,0.8382 -0.81026,1.39701 -0.53784,0.53086 -1.2573,0.77533 -0.71946,0.24448 -1.6764,0.24448 -0.9779,0 -1.70435,-0.25845 -0.72644,-0.25844 -1.22237,-0.76136 -0.56579,-0.57278 -0.81725,-1.38304 -0.24447,-0.81026 -0.24447,-1.99072 v -6.22365 h 1.38303 v 6.2935 q 0,0.84518 0.11176,1.33413 0.11874,0.48895 0.39116,0.8871 0.30734,0.45402 0.83122,0.68453 0.53086,0.23051 1.27127,0.23051 0.74739,0 1.27127,-0.22352 0.52387,-0.23051 0.8382,-0.69152 0.27242,-0.39815 0.38418,-0.90805 0.11874,-0.51689 0.11874,-1.27826 v -6.32842 h 1.38303 z"/><path id="path1827" d="M 456.64088,-220.98015 H 450.061 v -10.40068 h 1.38304 v 9.17132 h 5.19684 z"/><path id="path1829" d="m 465.66328,-220.98015 h -6.57988 v -10.40068 h 1.38304 v 9.17132 h 5.19684 z"/><path id="path1831" d="m 391.599,-202.9841 h -1.79515 l -3.47853,-4.13513 h -1.94882 v 4.13513 h -1.38303 v -10.40068 h 2.91275 q 0.94297,0 1.57162,0.12573 0.62866,0.11875 1.13158,0.43307 0.56578,0.35624 0.88011,0.90107 0.32131,0.53784 0.32131,1.36906 0,1.12459 -0.56579,1.88595 -0.56578,0.75438 -1.55766,1.13856 z m -3.23406,-7.47396 q 0,-0.44704 -0.16065,-0.78931 -0.15368,-0.34925 -0.5169,-0.58674 -0.30035,-0.20256 -0.71247,-0.2794 -0.41211,-0.0838 -0.97091,-0.0838 h -1.62751 v 3.92558 h 1.397 q 0.65659,0 1.14554,-0.11176 0.48895,-0.11875 0.83122,-0.43307 0.31432,-0.29337 0.46101,-0.67056 0.15367,-0.38418 0.15367,-0.97092 z"/><path id="path1833" d="m 400.26431,-202.9841 h -6.85229 v -10.40068 h 6.85229 v 1.22936 h -5.46926 v 2.84989 h 5.46926 v 1.22936 h -5.46926 v 3.86271 h 5.46926 z"/><path id="path1835" d="m 411.97226,-200.43457 q -0.4191,0.10477 -0.83122,0.14668 -0.40513,0.0489 -0.83121,0.0489 -1.2154,0 -1.95581,-0.67056 -0.73342,-0.66358 -0.79629,-1.90691 -0.16764,0.0279 -0.32829,0.0349 -0.15367,0.014 -0.30036,0.014 -1.09664,0 -1.99771,-0.36322 -0.89408,-0.36322 -1.52273,-1.05473 -0.62865,-0.69152 -0.97092,-1.69736 -0.33528,-1.00584 -0.33528,-2.29807 0,-1.27127 0.33528,-2.27711 0.33528,-1.01283 0.9779,-1.73228 0.61468,-0.68453 1.52273,-1.04775 0.91504,-0.36323 1.99073,-0.36323 1.1176,0 2.0047,0.37021 0.89408,0.36322 1.51575,1.04077 0.63563,0.6985 0.97091,1.71132 0.34227,1.01283 0.34227,2.29807 0,1.90691 -0.78232,3.21311 -0.77534,1.30619 -2.08852,1.83007 0.0279,0.79629 0.37719,1.23635 0.34925,0.44005 1.27127,0.44005 0.28639,0 0.67755,-0.0908 0.39814,-0.0838 0.56578,-0.15367 h 0.1886 z m -1.64846,-7.74638 q 0,-2.02565 -0.90805,-3.1223 -0.90806,-1.10363 -2.47968,-1.10363 -1.5856,0 -2.49365,1.10363 -0.90107,1.09665 -0.90107,3.1223 0,2.04661 0.92202,3.13627 0.92202,1.08268 2.4727,1.08268 1.55067,0 2.46571,-1.08268 0.92202,-1.08966 0.92202,-3.13627 z"/><path id="path1837" d="m 421.6845,-207.16114 q 0,1.13158 -0.25146,1.97676 -0.24447,0.8382 -0.81026,1.397 -0.53784,0.53086 -1.2573,0.77534 -0.71946,0.24447 -1.6764,0.24447 -0.9779,0 -1.70434,-0.25844 -0.72645,-0.25845 -1.22238,-0.76137 -0.56579,-0.57277 -0.81725,-1.38303 -0.24447,-0.81026 -0.24447,-1.99073 v -6.22364 h 1.38303 v 6.29349 q 0,0.84519 0.11176,1.33414 0.11874,0.48895 0.39116,0.8871 0.30734,0.45402 0.83122,0.68453 0.53086,0.2305 1.27127,0.2305 0.74739,0 1.27127,-0.22352 0.52388,-0.2305 0.8382,-0.69151 0.27242,-0.39815 0.38418,-0.90805 0.11874,-0.51689 0.11874,-1.27826 v -6.32842 h 1.38303 z"/><path id="path1839" d="m 431.6716,-202.9841 h -6.8523 v -10.40068 h 6.8523 v 1.22936 h -5.46926 v 2.84989 h 5.46926 v 1.22936 h -5.46926 v 3.86271 h 5.46926 z"/><path id="path1841" d="m 441.93589,-205.95273 q 0,0.6077 -0.28638,1.20142 -0.2794,0.59373 -0.78931,1.00584 -0.5588,0.44704 -1.3062,0.6985 -0.74041,0.25146 -1.78816,0.25146 -1.12459,0 -2.02565,-0.20955 -0.89408,-0.20955 -1.82309,-0.62166 v -1.73228 h 0.0978 q 0.78931,0.65659 1.82309,1.01282 1.03378,0.35624 1.94183,0.35624 1.28524,0 1.99771,-0.48197 0.71946,-0.48196 0.71946,-1.28524 0,-0.69152 -0.34227,-1.01981 -0.33528,-0.3283 -1.02679,-0.50991 -0.52388,-0.1397 -1.13856,-0.2305 -0.60769,-0.0908 -1.29223,-0.23051 -1.38303,-0.29337 -2.05359,-0.99885 -0.66357,-0.71247 -0.66357,-1.85103 0,-1.3062 1.10363,-2.13741 1.10363,-0.8382 2.80099,-0.8382 1.09664,0 2.01168,0.20955 0.91504,0.20955 1.62052,0.51689 v 1.63449 h -0.0978 q -0.59372,-0.50292 -1.56464,-0.83122 -0.96393,-0.33528 -1.97676,-0.33528 -1.11062,0 -1.78816,0.46101 -0.67056,0.46101 -0.67056,1.18745 0,0.64961 0.33528,1.01982 0.33528,0.3702 1.18047,0.56578 0.44704,0.0978 1.27127,0.23749 0.82423,0.1397 1.397,0.28639 1.15951,0.30734 1.74625,0.929 0.58674,0.62167 0.58674,1.73927 z"/><path id="path1843" d="m 451.6783,-212.15542 h -3.71602 v 9.17132 h -1.38303 v -9.17132 h -3.71603 v -1.22936 h 8.81508 z"/></g><g style="font-variant:normal;font-weight:500;font-stretch:normal;font-size:14.3053px;font-family:'Apex New Medium';-inkscape-font-specification:ApexNew-Medium;writing-mode:lr-tb;fill:#ee5658;fill-opacity:1;fill-rule:nonzero;stroke:none" id="text881" aria-label="MERGE AND DEPLOY" transform="scale(1,-1)"><path id="path1927" d="m 640.67036,-220.98015 h -1.38304 v -8.96177 l -2.89179,6.09792 h -0.82423 l -2.87084,-6.09792 v 8.96177 h -1.29223 v -10.40068 h 1.88596 l 2.77304,5.79058 2.68225,-5.79058 h 1.92088 z"/><path id="path1929" d="m 651.50296,-220.98015 h -6.8523 v -10.40068 h 6.8523 v 1.22936 h -5.46926 v 2.84989 h 5.46926 v 1.22936 h -5.46926 v 3.86271 h 5.46926 z"/><path id="path1931" d="m 662.702,-220.98015 h -1.79515 l -3.47854,-4.13512 h -1.94881 v 4.13512 h -1.38304 v -10.40068 h 2.91275 q 0.94298,0 1.57163,0.12573 0.62865,0.11875 1.13157,0.43307 0.56579,0.35624 0.88011,0.90107 0.32131,0.53785 0.32131,1.36906 0,1.12459 -0.56578,1.88595 -0.56579,0.75438 -1.55766,1.13856 z m -3.23406,-7.47396 q 0,-0.44704 -0.16066,-0.7893 -0.15367,-0.34926 -0.51689,-0.58675 -0.30035,-0.20256 -0.71247,-0.2794 -0.41212,-0.0838 -0.97092,-0.0838 h -1.6275 v 3.92558 h 1.397 q 0.65659,0 1.14554,-0.11176 0.48895,-0.11875 0.83122,-0.43307 0.31432,-0.29337 0.46101,-0.67056 0.15367,-0.38418 0.15367,-0.97092 z"/><path id="path1933" d="m 672.95294,-221.7485 q -0.85217,0.39116 -1.865,0.68453 -1.00584,0.28639 -1.94882,0.28639 -1.21539,0 -2.22822,-0.33528 -1.01282,-0.33528 -1.72529,-1.00584 -0.71946,-0.67755 -1.11062,-1.69038 -0.39116,-1.01981 -0.39116,-2.38189 0,-2.49364 1.45288,-3.93256 1.45987,-1.44589 4.00241,-1.44589 0.8871,0 1.80912,0.21653 0.92901,0.20955 1.99771,0.71946 v 1.64148 h -0.12573 q -0.21653,-0.16764 -0.62865,-0.44006 -0.41211,-0.27242 -0.81026,-0.45403 -0.48196,-0.21653 -1.09665,-0.35623 -0.60769,-0.14669 -1.38303,-0.14669 -1.74625,0 -2.76606,1.12459 -1.01283,1.1176 -1.01283,3.03149 0,2.01867 1.06172,3.14326 1.06173,1.1176 2.8918,1.1176 0.67056,0 1.33413,-0.13271 0.67057,-0.13272 1.17349,-0.34227 v -2.54953 h -2.78702 v -1.21539 h 4.15608 z"/><path id="path1935" d="m 681.96322,-220.98015 h -6.85229 v -10.40068 h 6.85229 v 1.22936 h -5.46926 v 2.84989 h 5.46926 v 1.22936 h -5.46926 v 3.86271 h 5.46926 z"/><path id="path1937" d="m 697.11596,-220.98015 h -1.47384 l -1.01981,-2.89878 h -4.49835 l -1.01981,2.89878 h -1.40399 l 3.78588,-10.40068 h 1.84404 z m -2.91974,-4.08623 -1.82308,-5.10604 -1.83008,5.10604 z"/><path id="path1939" d="m 707.5409,-220.98015 h -1.71133 l -4.93142,-9.30403 v 9.30403 h -1.29222 v -10.40068 h 2.14439 l 4.49835,8.49377 v -8.49377 h 1.29223 z"/><path id="path1941" d="m 719.36951,-226.17001 q 0,1.41796 -0.62167,2.57048 -0.61468,1.15253 -1.64148,1.78817 -0.71247,0.44005 -1.59258,0.63563 -0.87312,0.19558 -2.30505,0.19558 h -2.62636 v -10.40068 h 2.59842 q 1.52273,0 2.41681,0.22352 0.90107,0.21654 1.52273,0.60071 1.06173,0.66358 1.65545,1.76721 0.59373,1.10363 0.59373,2.61938 z m -1.4459,-0.021 q 0,-1.22237 -0.42608,-2.06057 -0.42609,-0.8382 -1.27128,-1.32017 -0.61468,-0.34925 -1.30619,-0.48197 -0.69152,-0.1397 -1.65545,-0.1397 h -1.29921 v 8.02578 h 1.29921 q 0.99886,0 1.73927,-0.14669 0.74739,-0.14668 1.36906,-0.54483 0.77533,-0.49593 1.15951,-1.30619 0.39116,-0.81026 0.39116,-2.02566 z"/><path id="path1943" d="m 654.90125,-208.17396 q 0,1.41795 -0.62167,2.57048 -0.61468,1.15253 -1.64148,1.78816 -0.71247,0.44006 -1.59258,0.63564 -0.87313,0.19558 -2.30505,0.19558 h -2.62637 v -10.40068 h 2.59843 q 1.52273,0 2.41681,0.22352 0.90107,0.21654 1.52273,0.60071 1.06172,0.66358 1.65545,1.76721 0.59373,1.10363 0.59373,2.61938 z m -1.4459,-0.021 q 0,-1.22237 -0.42609,-2.06058 -0.42608,-0.8382 -1.27127,-1.32016 -0.61468,-0.34925 -1.3062,-0.48197 -0.69151,-0.1397 -1.65544,-0.1397 h -1.29921 v 8.02578 h 1.29921 q 0.99885,0 1.73927,-0.14669 0.74739,-0.14668 1.36906,-0.54483 0.77533,-0.49593 1.15951,-1.30619 0.39116,-0.81027 0.39116,-2.02566 z"/><path id="path1945" d="m 663.73831,-202.9841 h -6.85229 v -10.40068 h 6.85229 v 1.22936 h -5.46926 v 2.84989 h 5.46926 v 1.22936 h -5.46926 v 3.86271 h 5.46926 z"/><path id="path1947" d="m 673.13522,-210.24153 q 0,0.69152 -0.24448,1.28525 -0.23749,0.58674 -0.67056,1.01981 -0.53785,0.53784 -1.27127,0.81026 -0.73343,0.26543 -1.85103,0.26543 h -1.38303 v 3.87668 h -1.38303 v -10.40068 h 2.82194 q 0.93599,0 1.5856,0.16066 0.6496,0.15367 1.15252,0.48895 0.59373,0.39814 0.91504,0.99187 0.3283,0.59372 0.3283,1.50177 z m -1.43892,0.0349 q 0,-0.53785 -0.18859,-0.93599 -0.1886,-0.39815 -0.57277,-0.64961 -0.33528,-0.21653 -0.76835,-0.30734 -0.42609,-0.0978 -1.08268,-0.0978 h -1.36906 v 4.15608 h 1.16649 q 0.83821,0 1.36208,-0.14668 0.52388,-0.15367 0.85217,-0.48197 0.3283,-0.33528 0.46101,-0.70548 0.1397,-0.37021 0.1397,-0.83122 z"/><path id="path1949" d="m 682.78663,-202.9841 h -6.57987 v -10.40068 h 1.38303 v 9.17132 h 5.19684 z"/><path id="path1951" d="m 692.73209,-212.19034 q 0.63563,0.6985 0.97092,1.71132 0.34226,1.01283 0.34226,2.29807 0,1.28524 -0.34925,2.30506 -0.34227,1.01282 -0.96393,1.69037 -0.64262,0.70548 -1.52273,1.06172 -0.87313,0.35623 -1.99772,0.35623 -1.09664,0 -1.99771,-0.36322 -0.89408,-0.36322 -1.52273,-1.05473 -0.62865,-0.69152 -0.97092,-1.69736 -0.33528,-1.00584 -0.33528,-2.29807 0,-1.27127 0.33528,-2.27711 0.33528,-1.01283 0.9779,-1.73228 0.61468,-0.68453 1.52274,-1.04775 0.91503,-0.36323 1.99072,-0.36323 1.11761,0 2.0047,0.37021 0.89408,0.36322 1.51575,1.04077 z m -0.12573,4.00939 q 0,-2.02565 -0.90805,-3.1223 -0.90805,-1.10363 -2.47968,-1.10363 -1.5856,0 -2.49365,1.10363 -0.90107,1.09665 -0.90107,3.1223 0,2.04661 0.92203,3.13627 0.92202,1.08268 2.47269,1.08268 1.55067,0 2.46571,-1.08268 0.92202,-1.08966 0.92202,-3.13627 z"/><path id="path1953" d="m 702.96263,-213.38478 -3.66014,5.83947 v 4.56121 h -1.38303 v -4.41453 l -3.67412,-5.98615 h 1.52972 l 2.8429,4.65202 2.87084,-4.65202 z"/></g><g id="g891" transform="translate(20.207561,-84.304037)"><g id="g893" clip-path="url(#clipPath897)"><g id="g899"><g id="g925"><g id="g923" clip-path="url(#clipPath905)" opacity=".25"><g id="g917" transform="translate(725.1956,361.6625)"><path d="m 0,0 h -587.24 -44.25" style="fill:none;stroke:url(#linearGradient913);stroke-width:10;stroke-linecap:round;stroke-linejoin:miter;stroke-miterlimit:10;stroke-dasharray:none;stroke-opacity:1" id="path915"/></g><g id="g921" transform="translate(723.3751,352.2831)"><path d="m 0,0 v 18.759 c 0,1.549 1.873,2.324 2.968,1.229 l 9.377,-9.379 c 0.679,-0.679 0.679,-1.78 0,-2.459 L 2.968,-1.229 C 1.873,-2.325 0,-1.549 0,0" style="fill:#ee5658;fill-opacity:1;fill-rule:nonzero;stroke:none" id="path919"/></g></g></g></g><g id="g927" transform="translate(163.6947,361.6625)"><path d="m 0,0 c 0,-14.213 -11.522,-25.734 -25.734,-25.734 -14.213,0 -25.734,11.521 -25.734,25.734 0,14.213 11.521,25.734 25.734,25.734 C -11.522,25.734 0,14.213 0,0" style="fill:#4f3058;fill-opacity:1;fill-rule:nonzero;stroke:none" id="path929"/></g><g id="g931" transform="translate(421.7341,361.6625)"><path d="m 0,0 c 0,-14.213 -11.522,-25.734 -25.734,-25.734 -14.213,0 -25.734,11.521 -25.734,25.734 0,14.213 11.521,25.734 25.734,25.734 C -11.522,25.734 0,14.213 0,0" style="fill:#a64061;fill-opacity:1;fill-rule:nonzero;stroke:none" id="path933"/></g><g id="g935" transform="translate(679.7736,361.6625)"><path d="m 0,0 c 0,-14.213 -11.522,-25.734 -25.734,-25.734 -14.213,0 -25.734,11.521 -25.734,25.734 0,14.213 11.521,25.734 25.734,25.734 C -11.522,25.734 0,14.213 0,0" style="fill:#ee5658;fill-opacity:1;fill-rule:nonzero;stroke:none" id="path937"/></g><g id="g939" transform="translate(256.1553,361.6625)"><path d="m 0,0 c 0,-4.822 -3.909,-8.73 -8.73,-8.73 -4.822,0 -8.73,3.908 -8.73,8.73 0,4.822 3.908,8.73 8.73,8.73 C -3.909,8.73 0,4.822 0,0" style="fill:#651f3f;fill-opacity:1;fill-rule:nonzero;stroke:none" id="path941"/></g><g id="g943" transform="translate(314.8206,361.6625)"><path d="m 0,0 c 0,-4.822 -3.909,-8.73 -8.73,-8.73 -4.822,0 -8.73,3.908 -8.73,8.73 0,4.822 3.908,8.73 8.73,8.73 C -3.909,8.73 0,4.822 0,0" style="fill:#651f3f;fill-opacity:1;fill-rule:nonzero;stroke:none" id="path945"/></g><g id="g947" transform="translate(217.0452,361.6625)"><path d="m 0,0 c 0,-4.822 -3.909,-8.73 -8.73,-8.73 -4.822,0 -8.73,3.908 -8.73,8.73 0,4.822 3.908,8.73 8.73,8.73 C -3.909,8.73 0,4.822 0,0" style="fill:#651f3f;fill-opacity:1;fill-rule:nonzero;stroke:none" id="path949"/></g><g id="g951" transform="translate(247.4252,359.9447)"><path d="m 0,0 c -0.949,0 -1.718,0.769 -1.718,1.718 0,0.949 0.769,1.718 1.718,1.718 0.949,0 1.718,-0.769 1.718,-1.718 C 1.718,0.769 0.949,0 0,0 M 2.88,2.577 C 2.51,3.818 1.362,4.724 0,4.724 -1.362,4.724 -2.51,3.818 -2.88,2.577 H -6.012 V 0.859 h 3.132 c 0.37,-1.242 1.518,-2.147 2.88,-2.147 1.362,0 2.51,0.905 2.88,2.147 h 3.132 v 1.718 z" style="fill:#f2f1ee;fill-opacity:1;fill-rule:evenodd;stroke:none" id="path953"/></g><g id="g955" transform="translate(306.0905,359.9447)"><path d="m 0,0 c -0.949,0 -1.718,0.769 -1.718,1.718 0,0.949 0.769,1.718 1.718,1.718 0.949,0 1.718,-0.769 1.718,-1.718 C 1.718,0.769 0.949,0 0,0 M 2.88,2.577 C 2.51,3.818 1.362,4.724 0,4.724 -1.362,4.724 -2.51,3.818 -2.88,2.577 H -6.012 V 0.859 h 3.132 c 0.37,-1.242 1.518,-2.147 2.88,-2.147 1.362,0 2.51,0.905 2.88,2.147 h 3.132 v 1.718 z" style="fill:#f2f1ee;fill-opacity:1;fill-rule:evenodd;stroke:none" id="path957"/></g><g id="g959" transform="translate(208.3151,359.9447)"><path d="m 0,0 c -0.949,0 -1.718,0.769 -1.718,1.718 0,0.949 0.769,1.718 1.718,1.718 0.949,0 1.718,-0.769 1.718,-1.718 C 1.718,0.769 0.949,0 0,0 M 2.88,2.577 C 2.51,3.818 1.362,4.724 0,4.724 -1.362,4.724 -2.51,3.818 -2.88,2.577 H -6.012 V 0.859 h 3.132 c 0.37,-1.242 1.518,-2.147 2.88,-2.147 1.362,0 2.51,0.905 2.88,2.147 h 3.132 v 1.718 z" style="fill:#f2f1ee;fill-opacity:1;fill-rule:evenodd;stroke:none" id="path961"/></g><g id="g963" transform="translate(553.3049,361.6625)"><path d="m 0,0 c 0,-4.822 -3.909,-8.73 -8.73,-8.73 -4.822,0 -8.73,3.908 -8.73,8.73 0,4.822 3.908,8.73 8.73,8.73 C -3.909,8.73 0,4.822 0,0" style="fill:#651f3f;fill-opacity:1;fill-rule:nonzero;stroke:none" id="path965"/></g><g id="g967" transform="translate(592.4151,361.6625)"><path d="m 0,0 c 0,-4.822 -3.909,-8.73 -8.73,-8.73 -4.822,0 -8.73,3.908 -8.73,8.73 0,4.822 3.908,8.73 8.73,8.73 C -3.909,8.73 0,4.822 0,0" style="fill:#651f3f;fill-opacity:1;fill-rule:nonzero;stroke:none" id="path969"/></g><g id="g971" transform="translate(494.6396,361.6625)"><path d="m 0,0 c 0,-4.822 -3.909,-8.73 -8.73,-8.73 -4.822,0 -8.73,3.908 -8.73,8.73 0,4.822 3.908,8.73 8.73,8.73 C -3.909,8.73 0,4.822 0,0" style="fill:#651f3f;fill-opacity:1;fill-rule:nonzero;stroke:none" id="path973"/></g><g id="g975" transform="translate(548.7585,364.9136)"><path d="M 0,0 H -4.506 C -5.481,0 -5.471,-0.965 -5.471,-0.965 V -3.54 c 0,-0.976 0.965,-0.966 0.965,-0.966 h 2.575 l 1.609,-1.609 v 1.609 H 0 c 0,0 0.965,0.011 0.965,0.966 v 2.575 C 0.965,0 0,0 0,0 m -4.506,-5.149 c -1.619,0 -1.609,1.609 -1.609,1.609 v 1.609 h -2.252 c 0,0 -0.966,0 -0.966,-0.965 v -2.575 c 0,-0.945 0.966,-0.966 0.966,-0.966 h 0.321 v -1.609 l 1.609,1.609 h 2.575 c 0,0 0.966,0 0.966,0.966 0,0.181 0,0.044 0,0.322 0,0 0.01,0 -1.61,0" style="fill:#f2f1ee;fill-opacity:1;fill-rule:evenodd;stroke:none" id="path977"/></g><g id="g979" transform="translate(583.3632,359.7643)"><path d="m 0,0 c -1.619,0 -1.609,1.609 -1.609,1.609 v 1.609 h -2.253 c 0,0 -0.965,0 -0.965,-0.965 v -2.575 c 0,-0.945 0.965,-0.965 0.965,-0.965 h 0.322 v -1.609 l 1.609,1.609 h 2.575 c 0,0 0.965,0 0.965,0.965 0,0.181 0,0.044 0,0.322 0,0 0.01,0 -1.609,0 M 4.506,5.149 H 0 c -0.976,0 -0.966,-0.965 -0.966,-0.965 V 1.609 C -0.966,0.634 0,0.644 0,0.644 h 2.575 l 1.609,-1.609 v 1.609 h 0.322 c 0,0 0.965,0.01 0.965,0.965 v 2.575 c 0,0.965 -0.965,0.965 -0.965,0.965" style="fill:#f2f1ee;fill-opacity:1;fill-rule:evenodd;stroke:none" id="path981"/></g><g id="g983" transform="translate(490.0933,364.9136)"><path d="M 0,0 H -4.506 C -5.481,0 -5.471,-0.965 -5.471,-0.965 V -3.54 c 0,-0.976 0.965,-0.966 0.965,-0.966 h 2.575 l 1.609,-1.609 v 1.609 H 0 c 0,0 0.966,0.011 0.966,0.966 v 2.575 C 0.966,0 0,0 0,0 m -4.506,-5.149 c -1.619,0 -1.609,1.609 -1.609,1.609 v 1.609 h -2.252 c 0,0 -0.966,0 -0.966,-0.965 v -2.575 c 0,-0.945 0.966,-0.966 0.966,-0.966 h 0.321 v -1.609 l 1.609,1.609 h 2.575 c 0,0 0.966,0 0.966,0.966 0,0.181 0,0.044 0,0.322 0,0 0.01,0 -1.61,0" style="fill:#f2f1ee;fill-opacity:1;fill-rule:evenodd;stroke:none" id="path985"/></g></g></g><g style="font-variant:normal;font-weight:500;font-stretch:normal;font-size:9px;font-family:'Apex New Medium';-inkscape-font-specification:ApexNew-Medium;writing-mode:lr-tb;fill:#f2f1ee;fill-opacity:1;fill-rule:nonzero;stroke:none" id="text989" aria-label="ADD COMMITS" transform="scale(1,-1)"><path style="fill:#f2f1ee;fill-opacity:1" id="path1873" d="m 271.51813,-308.18423 h -0.92725 l -0.6416,-1.82374 h -2.83008 l -0.6416,1.82374 h -0.8833 l 2.38184,-6.54346 h 1.16015 z m -1.83692,-2.57081 -1.14697,-3.2124 -1.15137,3.2124 z"/><path style="fill:#f2f1ee;fill-opacity:1" id="path1875" d="m 278.7381,-311.44937 q 0,0.89209 -0.39112,1.61719 -0.38671,0.72509 -1.03271,1.125 -0.44824,0.27685 -1.00195,0.3999 -0.54932,0.12305 -1.4502,0.12305 h -1.65234 v -6.54346 h 1.63476 q 0.95801,0 1.52051,0.14062 0.5669,0.13623 0.95801,0.37793 0.66797,0.41748 1.0415,1.11182 0.37354,0.69434 0.37354,1.64795 z m -0.90967,-0.0132 q 0,-0.76905 -0.26807,-1.29639 -0.26806,-0.52735 -0.7998,-0.83057 -0.38672,-0.21972 -0.82178,-0.30322 -0.43506,-0.0879 -1.0415,-0.0879 h -0.81738 v 5.04932 h 0.81738 q 0.62842,0 1.09424,-0.0923 0.47021,-0.0923 0.86132,-0.34277 0.4878,-0.31202 0.7295,-0.82178 0.24609,-0.50977 0.24609,-1.27441 z"/><path style="fill:#f2f1ee;fill-opacity:1" id="path1877" d="m 285.64197,-311.44937 q 0,0.89209 -0.39112,1.61719 -0.38671,0.72509 -1.03271,1.125 -0.44824,0.27685 -1.00195,0.3999 -0.54932,0.12305 -1.4502,0.12305 h -1.65234 v -6.54346 h 1.63476 q 0.95801,0 1.52051,0.14062 0.5669,0.13623 0.95801,0.37793 0.66797,0.41748 1.0415,1.11182 0.37354,0.69434 0.37354,1.64795 z m -0.90967,-0.0132 q 0,-0.76905 -0.26807,-1.29639 -0.26806,-0.52735 -0.7998,-0.83057 -0.38672,-0.21972 -0.82178,-0.30322 -0.43506,-0.0879 -1.0415,-0.0879 h -0.81739 v 5.04932 h 0.81739 q 0.62842,0 1.09424,-0.0923 0.47021,-0.0923 0.86132,-0.34277 0.4878,-0.31202 0.7295,-0.82178 0.24609,-0.50977 0.24609,-1.27441 z"/><path style="fill:#f2f1ee;fill-opacity:1" id="path1879" d="m 294.61737,-308.65884 q -0.2417,0.10546 -0.43945,0.19775 -0.19336,0.0923 -0.50977,0.19336 -0.26806,0.0835 -0.58447,0.14062 -0.31201,0.0615 -0.68994,0.0615 -0.71192,0 -1.29639,-0.19776 -0.58008,-0.20214 -1.01074,-0.62841 -0.42188,-0.41748 -0.65918,-1.05909 -0.23731,-0.64599 -0.23731,-1.49853 0,-0.8086 0.22852,-1.4458 0.22852,-0.63721 0.65918,-1.07666 0.41748,-0.42627 1.00635,-0.65039 0.59326,-0.22412 1.31396,-0.22412 0.52735,0 1.0503,0.12744 0.52734,0.12744 1.16894,0.44824 v 1.03271 h -0.0659 q -0.54052,-0.45263 -1.07226,-0.65918 -0.53174,-0.20654 -1.13819,-0.20654 -0.49658,0 -0.89648,0.1626 -0.39551,0.1582 -0.70752,0.49658 -0.30322,0.32959 -0.47461,0.83496 -0.16699,0.50098 -0.16699,1.16016 0,0.68994 0.18457,1.18652 0.18896,0.49658 0.4834,0.8086 0.30761,0.32519 0.71631,0.48339 0.41308,0.15381 0.87011,0.15381 0.62842,0 1.17774,-0.21533 0.54931,-0.21533 1.02832,-0.646 h 0.0615 z"/><path style="fill:#f2f1ee;fill-opacity:1" id="path1881" d="m 300.5976,-313.97623 q 0.3999,0.43946 0.61084,1.07666 0.21533,0.63721 0.21533,1.4458 0,0.8086 -0.21973,1.4502 -0.21533,0.63721 -0.60644,1.06348 -0.4043,0.44384 -0.95801,0.66796 -0.54932,0.22413 -1.25684,0.22413 -0.68994,0 -1.25683,-0.22852 -0.5625,-0.22852 -0.95801,-0.66357 -0.39551,-0.43506 -0.61084,-1.06788 -0.21094,-0.63281 -0.21094,-1.4458 0,-0.7998 0.21094,-1.43261 0.21094,-0.63721 0.61523,-1.08985 0.38672,-0.43066 0.95801,-0.65918 0.57568,-0.22851 1.25244,-0.22851 0.70313,0 1.26123,0.23291 0.5625,0.22851 0.95362,0.65478 z m -0.0791,2.52246 q 0,-1.27441 -0.57129,-1.96435 -0.57128,-0.69434 -1.56005,-0.69434 -0.99756,0 -1.56885,0.69434 -0.5669,0.68994 -0.5669,1.96435 0,1.2876 0.58008,1.97315 0.58008,0.68115 1.55567,0.68115 0.97558,0 1.55127,-0.68115 0.58007,-0.68555 0.58007,-1.97315 z"/><path style="fill:#f2f1ee;fill-opacity:1" id="path1883" d="m 308.73782,-308.18423 h -0.87011 v -5.63819 l -1.81934,3.83643 h -0.51855 l -1.80616,-3.83643 v 5.63819 h -0.81298 v -6.54346 h 1.18652 l 1.74463,3.64306 1.6875,-3.64306 h 1.20849 z"/><path style="fill:#f2f1ee;fill-opacity:1" id="path1885" d="m 317.1933,-308.18423 h -0.87012 v -5.63819 l -1.81933,3.83643 h -0.51856 l -1.80615,-3.83643 v 5.63819 h -0.81299 v -6.54346 h 1.18652 l 1.74463,3.64306 1.6875,-3.64306 h 1.2085 z"/><path style="fill:#f2f1ee;fill-opacity:1" id="path1887" d="m 322.05768,-308.18423 h -2.58399 v -0.66797 h 0.85694 v -5.20752 h -0.85694 v -0.66797 h 2.58399 v 0.66797 h -0.85694 v 5.20752 h 0.85694 z"/><path style="fill:#f2f1ee;fill-opacity:1" id="path1889" d="m 327.81415,-313.95425 h -2.33789 v 5.77002 h -0.87012 v -5.77002 h -2.33789 v -0.77344 h 5.5459 z"/><path style="fill:#f2f1ee;fill-opacity:1" id="path1891" d="m 333.97705,-310.05191 q 0,0.38232 -0.18018,0.75586 -0.17578,0.37353 -0.49658,0.63281 -0.35156,0.28125 -0.82177,0.43945 -0.46582,0.15821 -1.125,0.15821 -0.70752,0 -1.27442,-0.13184 -0.5625,-0.13183 -1.14697,-0.39111 v -1.08985 h 0.0615 q 0.49658,0.41309 1.14697,0.63721 0.6504,0.22412 1.22168,0.22412 0.8086,0 1.25684,-0.30322 0.45264,-0.30322 0.45264,-0.80859 0,-0.43506 -0.21533,-0.64161 -0.21094,-0.20654 -0.646,-0.3208 -0.32959,-0.0879 -0.71631,-0.14502 -0.38232,-0.0571 -0.81299,-0.14501 -0.87011,-0.18458 -1.29199,-0.62842 -0.41748,-0.44825 -0.41748,-1.16455 0,-0.82178 0.69434,-1.34473 0.69433,-0.52734 1.7622,-0.52734 0.68994,0 1.26563,0.13183 0.57568,0.13184 1.01953,0.3252 v 1.02832 h -0.0615 q -0.37354,-0.31641 -0.98438,-0.52295 -0.60644,-0.21094 -1.24365,-0.21094 -0.69873,0 -1.125,0.29004 -0.42188,0.29004 -0.42188,0.74707 0,0.40869 0.21094,0.6416 0.21094,0.23291 0.74268,0.35596 0.28125,0.0615 0.7998,0.14941 0.51856,0.0879 0.87891,0.18018 0.72949,0.19336 1.09863,0.58447 0.36914,0.39111 0.36914,1.09424 z"/></g><g id="g991" transform="translate(20.207561,-84.304037)"><g id="g993" clip-path="url(#clipPath997)"><g id="g999" transform="translate(665.9381,356.3032)"><path d="m 0,0 c -1.293,0 -2.341,1.048 -2.341,2.341 0,1.293 1.048,2.341 2.341,2.341 1.293,0 2.341,-1.048 2.341,-2.341 C 2.341,1.048 1.293,0 0,0 m -18.729,14.047 c -1.293,0 -2.341,1.048 -2.341,2.341 0,1.293 1.048,2.341 2.341,2.341 1.293,0 2.341,-1.048 2.341,-2.341 0,-1.293 -1.048,-2.341 -2.341,-2.341 m 0,-23.412 c -1.293,0 -2.341,1.048 -2.341,2.342 0,1.293 1.048,2.341 2.341,2.341 1.293,0 2.341,-1.048 2.341,-2.341 0,-1.294 -1.048,-2.342 -2.341,-2.342 M 0,7.024 c -1.729,0 -3.222,-0.948 -4.033,-2.342 h -0.649 c -7.379,0 -10.102,4.648 -11.111,8.086 1.057,0.859 1.746,2.152 1.746,3.62 0,2.586 -2.096,4.683 -4.682,4.683 -2.586,0 -4.682,-2.097 -4.682,-4.683 0,-1.729 0.947,-3.222 2.341,-4.032 V -2.991 c -1.394,-0.811 -2.341,-2.304 -2.341,-4.032 0,-2.586 2.096,-4.683 4.682,-4.683 2.586,0 4.682,2.097 4.682,4.683 0,1.728 -0.947,3.221 -2.341,4.032 v 7.42 C -13.961,1.912 -10.278,0 -4.682,0 h 0.649 c 0.811,-1.394 2.304,-2.341 4.033,-2.341 2.586,0 4.682,2.096 4.682,4.682 0,2.586 -2.096,4.683 -4.682,4.683" style="fill:#f2f1ee;fill-opacity:1;fill-rule:evenodd;stroke:none" id="path1001"/></g><g id="g1003" transform="translate(405.7457,347.0419)"><path d="m 0,0 c -1.293,0 -2.341,1.048 -2.341,2.341 0,1.293 1.048,2.341 2.341,2.341 1.293,0 2.341,-1.048 2.341,-2.341 C 2.341,1.048 1.293,0 0,0 M 2.341,6.374 V 21.07 c 0,7.043 -7.023,7.024 -7.023,7.024 h -2.341 v 4.682 l -7.024,-7.023 7.024,-7.024 v 4.683 h 2.341 c 2.065,0 2.341,-2.342 2.341,-2.342 V 6.374 C -3.735,5.563 -4.682,4.07 -4.682,2.341 c 0,-2.586 2.096,-4.682 4.682,-4.682 2.586,0 4.682,2.096 4.682,4.682 0,1.729 -0.947,3.222 -2.341,4.033 m -21.07,17.038 c -1.293,0 -2.341,1.048 -2.341,2.341 0,1.293 1.048,2.341 2.341,2.341 1.293,0 2.341,-1.048 2.341,-2.341 0,-1.293 -1.048,-2.341 -2.341,-2.341 m 0,-23.412 c -1.293,0 -2.341,1.048 -2.341,2.341 0,1.293 1.048,2.341 2.341,2.341 1.293,0 2.341,-1.048 2.341,-2.341 C -16.388,1.048 -17.436,0 -18.729,0 m 0,30.435 c -2.586,0 -4.682,-2.096 -4.682,-4.682 0,-1.729 0.947,-3.222 2.341,-4.033 V 6.374 c -1.394,-0.811 -2.341,-2.304 -2.341,-4.033 0,-2.586 2.096,-4.682 4.682,-4.682 2.586,0 4.682,2.096 4.682,4.682 0,1.729 -0.947,3.222 -2.341,4.033 V 21.72 c 1.394,0.811 2.341,2.304 2.341,4.033 0,2.586 -2.096,4.682 -4.682,4.682" style="fill:#f2f1ee;fill-opacity:1;fill-rule:evenodd;stroke:none" id="path1005"/></g><g id="g1007" transform="translate(146.7163,365.312)"><path d="m 0,0 c -1.293,0 -2.341,1.048 -2.341,2.341 0,1.293 1.048,2.341 2.341,2.341 1.293,0 2.341,-1.048 2.341,-2.341 C 2.341,1.048 1.293,0 0,0 m -14.047,-18.729 c -1.293,0 -2.341,1.048 -2.341,2.341 0,1.293 1.048,2.341 2.341,2.341 1.293,0 2.341,-1.048 2.341,-2.341 0,-1.293 -1.048,-2.341 -2.341,-2.341 m 0,28.093 c 1.293,0 2.341,-1.048 2.341,-2.341 0,-1.292 -1.048,-2.341 -2.341,-2.341 -1.293,0 -2.341,1.049 -2.341,2.341 0,1.293 1.048,2.341 2.341,2.341 M 0,7.023 c -2.586,0 -4.682,-2.096 -4.682,-4.682 0,-1.729 0.947,-3.222 2.341,-4.033 v -0.649 c 0,0 0,-4.682 -4.682,-4.682 -1.942,0 -3.463,-0.417 -4.683,-1.055 V 2.991 c 1.394,0.811 2.341,2.304 2.341,4.032 0,2.586 -2.096,4.683 -4.682,4.683 -2.586,0 -4.682,-2.097 -4.682,-4.683 0,-1.728 0.947,-3.221 2.341,-4.032 v -15.346 c -1.394,-0.812 -2.341,-2.305 -2.341,-4.033 0,-2.586 2.096,-4.683 4.682,-4.683 2.586,0 4.682,2.097 4.682,4.683 0,1.226 -0.482,2.333 -1.253,3.168 0.681,0.838 1.788,1.514 3.595,1.514 9.291,0 9.364,9.365 9.364,9.365 v 0.649 C 3.735,-0.881 4.682,0.612 4.682,2.341 4.682,4.927 2.586,7.023 0,7.023" style="fill:#f2f1ee;fill-opacity:1;fill-rule:evenodd;stroke:none" id="path1009"/></g></g></g><g style="font-variant:normal;font-weight:500;font-stretch:normal;font-size:9px;font-family:'Apex New Medium';-inkscape-font-specification:ApexNew-Medium;writing-mode:lr-tb;fill:#f2f1ee;fill-opacity:1;fill-rule:nonzero;stroke:none" id="text1013" aria-label="DISCUSS AND REVIEW" transform="scale(1,-1)"><path style="fill:#f2f1ee;fill-opacity:1" id="path1894" d="m 507.99957,-311.44937 q 0,0.89209 -0.39111,1.61719 -0.38672,0.72509 -1.03272,1.125 -0.44824,0.27685 -1.00195,0.3999 -0.54931,0.12305 -1.45019,0.12305 h -1.65235 v -6.54346 h 1.63477 q 0.95801,0 1.52051,0.14062 0.56689,0.13623 0.958,0.37793 0.66797,0.41748 1.04151,1.11182 0.37353,0.69434 0.37353,1.64795 z m -0.90967,-0.0132 q 0,-0.76905 -0.26806,-1.29639 -0.26807,-0.52735 -0.79981,-0.83057 -0.38672,-0.21972 -0.82177,-0.30322 -0.43506,-0.0879 -1.04151,-0.0879 h -0.81738 v 5.04932 h 0.81738 q 0.62842,0 1.09424,-0.0923 0.47022,-0.0923 0.86133,-0.34277 0.48779,-0.31202 0.72949,-0.82178 0.24609,-0.50977 0.24609,-1.27441 z"/><path style="fill:#f2f1ee;fill-opacity:1" id="path1896" d="m 511.62201,-308.18423 h -2.58399 v -0.66797 h 0.85694 v -5.20752 h -0.85694 v -0.66797 h 2.58399 v 0.66797 h -0.85693 v 5.20752 h 0.85693 z"/><path style="fill:#f2f1ee;fill-opacity:1" id="path1898" d="m 517.48254,-310.05191 q 0,0.38232 -0.18017,0.75586 -0.17578,0.37353 -0.49658,0.63281 -0.35157,0.28125 -0.82178,0.43945 -0.46582,0.15821 -1.125,0.15821 -0.70752,0 -1.27442,-0.13184 -0.5625,-0.13183 -1.14697,-0.39111 v -1.08985 h 0.0615 q 0.49658,0.41309 1.14697,0.63721 0.65039,0.22412 1.22168,0.22412 0.80859,0 1.25683,-0.30322 0.45264,-0.30322 0.45264,-0.80859 0,-0.43506 -0.21533,-0.64161 -0.21094,-0.20654 -0.646,-0.3208 -0.32959,-0.0879 -0.71631,-0.14502 -0.38232,-0.0571 -0.81298,-0.14501 -0.87012,-0.18458 -1.292,-0.62842 -0.41748,-0.44825 -0.41748,-1.16455 0,-0.82178 0.69434,-1.34473 0.69433,-0.52734 1.76221,-0.52734 0.68994,0 1.26562,0.13183 0.57568,0.13184 1.01953,0.3252 v 1.02832 h -0.0615 q -0.37354,-0.31641 -0.98438,-0.52295 -0.60644,-0.21094 -1.24365,-0.21094 -0.69873,0 -1.125,0.29004 -0.42187,0.29004 -0.42187,0.74707 0,0.40869 0.21093,0.6416 0.21094,0.23291 0.74268,0.35596 0.28125,0.0615 0.7998,0.14941 0.51856,0.0879 0.87891,0.18018 0.72949,0.19336 1.09863,0.58447 0.36914,0.39111 0.36914,1.09424 z"/><path style="fill:#f2f1ee;fill-opacity:1" id="path1900" d="m 524.16327,-308.65884 q -0.2417,0.10546 -0.43945,0.19775 -0.19336,0.0923 -0.50977,0.19336 -0.26807,0.0835 -0.58447,0.14062 -0.31201,0.0615 -0.68994,0.0615 -0.71192,0 -1.29639,-0.19776 -0.58008,-0.20214 -1.01074,-0.62841 -0.42188,-0.41748 -0.65918,-1.05909 -0.23731,-0.64599 -0.23731,-1.49853 0,-0.8086 0.22852,-1.4458 0.22851,-0.63721 0.65918,-1.07666 0.41748,-0.42627 1.00635,-0.65039 0.59326,-0.22412 1.31396,-0.22412 0.52734,0 1.05029,0.12744 0.52735,0.12744 1.16895,0.44824 v 1.03271 h -0.0659 q -0.54053,-0.45263 -1.07226,-0.65918 -0.53174,-0.20654 -1.13819,-0.20654 -0.49658,0 -0.89648,0.1626 -0.39551,0.1582 -0.70752,0.49658 -0.30322,0.32959 -0.47461,0.83496 -0.16699,0.50098 -0.16699,1.16016 0,0.68994 0.18457,1.18652 0.18896,0.49658 0.4834,0.8086 0.30761,0.32519 0.7163,0.48339 0.41309,0.15381 0.87012,0.15381 0.62842,0 1.17774,-0.21533 0.54931,-0.21533 1.02832,-0.646 h 0.0615 z"/><path style="fill:#f2f1ee;fill-opacity:1" id="path1902" d="m 530.31604,-310.81216 q 0,0.71191 -0.1582,1.24365 -0.15381,0.52734 -0.50977,0.8789 -0.33838,0.33399 -0.79101,0.4878 -0.45264,0.15381 -1.05469,0.15381 -0.61524,0 -1.07227,-0.1626 -0.45703,-0.1626 -0.76904,-0.47901 -0.35596,-0.36035 -0.51416,-0.87011 -0.15381,-0.50977 -0.15381,-1.25244 v -3.91553 h 0.87012 v 3.95947 q 0,0.53174 0.0703,0.83936 0.0747,0.30761 0.24609,0.5581 0.19336,0.28565 0.52295,0.43067 0.33399,0.14502 0.79981,0.14502 0.47021,0 0.7998,-0.14063 0.32959,-0.14502 0.52735,-0.43506 0.17138,-0.25049 0.2417,-0.57129 0.0747,-0.32519 0.0747,-0.8042 v -3.98144 h 0.87012 z"/><path style="fill:#f2f1ee;fill-opacity:1" id="path1904" d="m 537.09265,-310.05191 q 0,0.38232 -0.18017,0.75586 -0.17579,0.37353 -0.49659,0.63281 -0.35156,0.28125 -0.82177,0.43945 -0.46582,0.15821 -1.125,0.15821 -0.70752,0 -1.27442,-0.13184 -0.5625,-0.13183 -1.14697,-0.39111 v -1.08985 h 0.0615 q 0.49658,0.41309 1.14698,0.63721 0.65039,0.22412 1.22168,0.22412 0.80859,0 1.25683,-0.30322 0.45264,-0.30322 0.45264,-0.80859 0,-0.43506 -0.21533,-0.64161 -0.21094,-0.20654 -0.646,-0.3208 -0.32959,-0.0879 -0.71631,-0.14502 -0.38232,-0.0571 -0.81299,-0.14501 -0.87011,-0.18458 -1.29199,-0.62842 -0.41748,-0.44825 -0.41748,-1.16455 0,-0.82178 0.69434,-1.34473 0.69433,-0.52734 1.7622,-0.52734 0.68994,0 1.26563,0.13183 0.57568,0.13184 1.01953,0.3252 v 1.02832 h -0.0615 q -0.37354,-0.31641 -0.98438,-0.52295 -0.60644,-0.21094 -1.24365,-0.21094 -0.69873,0 -1.125,0.29004 -0.42188,0.29004 -0.42188,0.74707 0,0.40869 0.21094,0.6416 0.21094,0.23291 0.74268,0.35596 0.28125,0.0615 0.7998,0.14941 0.51856,0.0879 0.87891,0.18018 0.72949,0.19336 1.09863,0.58447 0.36914,0.39111 0.36914,1.09424 z"/><path style="fill:#f2f1ee;fill-opacity:1" id="path1906" d="m 543.49164,-310.05191 q 0,0.38232 -0.18018,0.75586 -0.17578,0.37353 -0.49658,0.63281 -0.35156,0.28125 -0.82178,0.43945 -0.46582,0.15821 -1.125,0.15821 -0.70752,0 -1.27441,-0.13184 -0.5625,-0.13183 -1.14697,-0.39111 v -1.08985 h 0.0615 q 0.49658,0.41309 1.14697,0.63721 0.65039,0.22412 1.22168,0.22412 0.8086,0 1.25684,-0.30322 0.45263,-0.30322 0.45263,-0.80859 0,-0.43506 -0.21533,-0.64161 -0.21093,-0.20654 -0.64599,-0.3208 -0.32959,-0.0879 -0.71631,-0.14502 -0.38233,-0.0571 -0.81299,-0.14501 -0.87012,-0.18458 -1.29199,-0.62842 -0.41748,-0.44825 -0.41748,-1.16455 0,-0.82178 0.69433,-1.34473 0.69434,-0.52734 1.76221,-0.52734 0.68994,0 1.26563,0.13183 0.57568,0.13184 1.01953,0.3252 v 1.02832 h -0.0615 q -0.37353,-0.31641 -0.98437,-0.52295 -0.60645,-0.21094 -1.24365,-0.21094 -0.69873,0 -1.125,0.29004 -0.42188,0.29004 -0.42188,0.74707 0,0.40869 0.21094,0.6416 0.21094,0.23291 0.74267,0.35596 0.28125,0.0615 0.79981,0.14941 0.51855,0.0879 0.8789,0.18018 0.7295,0.19336 1.09864,0.58447 0.36914,0.39111 0.36914,1.09424 z"/><path style="fill:#f2f1ee;fill-opacity:1" id="path1908" d="m 552.85095,-308.18423 h -0.92724 l -0.64161,-1.82374 h -2.83007 l -0.64161,1.82374 h -0.8833 l 2.38184,-6.54346 h 1.16016 z m -1.83691,-2.57081 -1.14697,-3.2124 -1.15137,3.2124 z"/><path style="fill:#f2f1ee;fill-opacity:1" id="path1910" d="m 559.53473,-308.18423 h -1.07666 l -3.10254,-5.85352 v 5.85352 h -0.81299 v -6.54346 h 1.34912 l 2.83008,5.34375 v -5.34375 h 0.81299 z"/><path style="fill:#f2f1ee;fill-opacity:1" id="path1912" d="m 567.09985,-311.44937 q 0,0.89209 -0.39111,1.61719 -0.38672,0.72509 -1.03271,1.125 -0.44825,0.27685 -1.00196,0.3999 -0.54931,0.12305 -1.45019,0.12305 h -1.65235 v -6.54346 h 1.63477 q 0.95801,0 1.52051,0.14062 0.56689,0.13623 0.958,0.37793 0.66797,0.41748 1.04151,1.11182 0.37353,0.69434 0.37353,1.64795 z m -0.90966,-0.0132 q 0,-0.76905 -0.26807,-1.29639 -0.26807,-0.52735 -0.79981,-0.83057 -0.38671,-0.21972 -0.82177,-0.30322 -0.43506,-0.0879 -1.04151,-0.0879 h -0.81738 v 5.04932 h 0.81738 q 0.62842,0 1.09424,-0.0923 0.47022,-0.0923 0.86133,-0.34277 0.48779,-0.31202 0.72949,-0.82178 0.2461,-0.50977 0.2461,-1.27441 z"/><path style="fill:#f2f1ee;fill-opacity:1" id="path1914" d="m 576.43561,-308.18423 h -1.1294 l -2.18847,-2.60157 h -1.22608 v 2.60157 h -0.87011 v -6.54346 h 1.83251 q 0.59327,0 0.98877,0.0791 0.39551,0.0747 0.71192,0.27246 0.35596,0.22412 0.55371,0.5669 0.20215,0.33837 0.20215,0.86132 0,0.70752 -0.35596,1.18653 -0.35596,0.47461 -0.97998,0.71631 z m -2.03467,-4.70215 q 0,-0.28125 -0.10107,-0.49659 -0.0967,-0.21972 -0.3252,-0.36914 -0.18896,-0.12744 -0.44824,-0.17578 -0.25928,-0.0527 -0.61084,-0.0527 h -1.02393 v 2.46973 h 0.87891 q 0.41308,0 0.7207,-0.0703 0.30762,-0.0747 0.52295,-0.27246 0.19776,-0.18457 0.29004,-0.42187 0.0967,-0.2417 0.0967,-0.61084 z"/><path style="fill:#f2f1ee;fill-opacity:1" id="path1916" d="m 582.01147,-308.18423 h -4.31103 v -6.54346 h 4.31103 v 0.77344 h -3.44091 v 1.79296 h 3.44091 v 0.77344 h -3.44091 v 2.43018 h 3.44091 z"/><path style="fill:#f2f1ee;fill-opacity:1" id="path1918" d="m 589.06964,-314.72769 -2.38183,6.54346 h -1.16016 l -2.38184,-6.54346 h 0.93164 l 2.05225,5.75683 2.05225,-5.75683 z"/><path style="fill:#f2f1ee;fill-opacity:1" id="path1920" d="m 592.97931,-308.18423 h -2.58399 v -0.66797 h 0.85694 v -5.20752 h -0.85694 v -0.66797 h 2.58399 v 0.66797 h -0.85693 v 5.20752 h 0.85693 z"/><path style="fill:#f2f1ee;fill-opacity:1" id="path1922" d="m 598.40143,-308.18423 h -4.31104 v -6.54346 h 4.31104 v 0.77344 h -3.44092 v 1.79296 h 3.44092 v 0.77344 h -3.44092 v 2.43018 h 3.44092 z"/><path style="fill:#f2f1ee;fill-opacity:1" id="path1924" d="m 607.9071,-314.72769 -1.70068,6.54346 h -0.97998 l -1.37549,-5.43165 -1.34472,5.43165 h -0.95801 l -1.73145,-6.54346 h 0.89209 l 1.37549,5.44043 1.35352,-5.44043 h 0.8833 l 1.3667,5.49316 1.3667,-5.49316 z"/></g><g id="g1015" transform="translate(88.392859,-43.392858)"><g id="g1017" clip-path="url(#clipPath1021)"><g id="g1023" transform="translate(140.1297,331.24202)"><path d="M 0,0 V 0.5" style="fill:none;stroke:#651f3f;stroke-width:1;stroke-linecap:round;stroke-linejoin:round;stroke-miterlimit:4;stroke-dasharray:none;stroke-opacity:1" id="path1025"/></g><g id="g1027" transform="translate(140.1297,333.88632)"><path d="M 0,0 V 1.608" style="fill:none;stroke:#651f3f;stroke-width:1;stroke-linecap:round;stroke-linejoin:round;stroke-miterlimit:4;stroke-dasharray:.536,2.144;stroke-dashoffset:0;stroke-opacity:1" id="path1029"/></g><g id="g1031" transform="translate(140.1297,336.56662)"><path d="M 0,0 V 0.5 H 0.5" style="fill:none;stroke:#651f3f;stroke-width:1;stroke-linecap:round;stroke-linejoin:round;stroke-miterlimit:4;stroke-dasharray:none;stroke-opacity:1" id="path1033"/></g><g id="g1035" transform="translate(144.5398,337.06662)"><path d="M 0,0 H 90.91" style="fill:none;stroke:#651f3f;stroke-width:1;stroke-linecap:round;stroke-linejoin:round;stroke-miterlimit:4;stroke-dasharray:.978,3.91;stroke-dashoffset:0;stroke-opacity:1" id="path1037"/></g><g id="g1039" transform="translate(237.4052,337.06662)"><path d="M 0,0 H 0.5 V -0.5" style="fill:none;stroke:#651f3f;stroke-width:1;stroke-linecap:round;stroke-linejoin:round;stroke-miterlimit:4;stroke-dasharray:none;stroke-opacity:1" id="path1041"/></g><g id="g1043" transform="translate(237.9052,334.42232)"><path d="M 0,0 V -1.608" style="fill:none;stroke:#651f3f;stroke-width:1;stroke-linecap:round;stroke-linejoin:round;stroke-miterlimit:4;stroke-dasharray:.536,2.144;stroke-dashoffset:0;stroke-opacity:1" id="path1045"/></g><g id="g1047" transform="translate(237.9052,331.74202)"><path d="M 0,0 V -0.5" style="fill:none;stroke:#651f3f;stroke-width:1;stroke-linecap:round;stroke-linejoin:round;stroke-miterlimit:4;stroke-dasharray:none;stroke-opacity:1" id="path1049"/></g><g id="g1051" transform="translate(179.2399,336.76172)"><path d="M 0,0 V -0.5" style="fill:none;stroke:#651f3f;stroke-width:1;stroke-linecap:round;stroke-linejoin:round;stroke-miterlimit:4;stroke-dasharray:none;stroke-opacity:1" id="path1053"/></g><g id="g1055" transform="translate(179.2399,334.25292)"><path d="M 0,0 V -1.507" style="fill:none;stroke:#651f3f;stroke-width:1;stroke-linecap:round;stroke-linejoin:round;stroke-miterlimit:4;stroke-dasharray:.502,2.009;stroke-dashoffset:0;stroke-opacity:1" id="path1057"/></g><g id="g1059" transform="translate(179.2399,331.74192)"><path d="M 0,0 V -0.5" style="fill:none;stroke:#651f3f;stroke-width:1;stroke-linecap:round;stroke-linejoin:round;stroke-miterlimit:4;stroke-dasharray:none;stroke-opacity:1" id="path1061"/></g><g id="g1063" transform="translate(212.0905,345.80402)"><path d="M 0,0 V -0.5" style="fill:none;stroke:#651f3f;stroke-width:1;stroke-linecap:round;stroke-linejoin:round;stroke-miterlimit:4;stroke-dasharray:none;stroke-opacity:1" id="path1065"/></g><g id="g1067" transform="translate(212.0905,341.86522)"><path d="M 0,0 V -2.579" style="fill:none;stroke:#651f3f;stroke-width:1;stroke-linecap:round;stroke-linejoin:round;stroke-miterlimit:4;stroke-dasharray:.86,3.439;stroke-dashoffset:0;stroke-opacity:1" id="path1069"/></g><g id="g1071" transform="translate(212.0905,337.56662)"><path d="M 0,0 V -0.5" style="fill:none;stroke:#651f3f;stroke-width:1;stroke-linecap:round;stroke-linejoin:round;stroke-miterlimit:4;stroke-dasharray:none;stroke-opacity:1" id="path1073"/></g><g id="g1075" transform="translate(515.4996,331.24202)"><path d="M 0,0 V 0.5" style="fill:none;stroke:#651f3f;stroke-width:1;stroke-linecap:round;stroke-linejoin:round;stroke-miterlimit:4;stroke-dasharray:none;stroke-opacity:1" id="path1077"/></g><g id="g1079" transform="translate(515.4996,333.88632)"><path d="M 0,0 V 1.608" style="fill:none;stroke:#651f3f;stroke-width:1;stroke-linecap:round;stroke-linejoin:round;stroke-miterlimit:4;stroke-dasharray:.536,2.144;stroke-dashoffset:0;stroke-opacity:1" id="path1081"/></g><g id="g1083" transform="translate(515.4996,336.56662)"><path d="M 0,0 V 0.5 H -0.5" style="fill:none;stroke:#651f3f;stroke-width:1;stroke-linecap:round;stroke-linejoin:round;stroke-miterlimit:4;stroke-dasharray:none;stroke-opacity:1" id="path1085"/></g><g id="g1087" transform="translate(511.0895,337.06662)"><path d="M 0,0 H -90.91" style="fill:none;stroke:#651f3f;stroke-width:1;stroke-linecap:round;stroke-linejoin:round;stroke-miterlimit:4;stroke-dasharray:.978,3.91;stroke-dashoffset:0;stroke-opacity:1" id="path1089"/></g><g id="g1091" transform="translate(418.2242,337.06662)"><path d="M 0,0 H -0.5 V -0.5" style="fill:none;stroke:#651f3f;stroke-width:1;stroke-linecap:round;stroke-linejoin:round;stroke-miterlimit:4;stroke-dasharray:none;stroke-opacity:1" id="path1093"/></g><g id="g1095" transform="translate(417.7242,334.42232)"><path d="M 0,0 V -1.608" style="fill:none;stroke:#651f3f;stroke-width:1;stroke-linecap:round;stroke-linejoin:round;stroke-miterlimit:4;stroke-dasharray:.536,2.144;stroke-dashoffset:0;stroke-opacity:1" id="path1097"/></g><g id="g1099" transform="translate(417.7242,331.74202)"><path d="M 0,0 V -0.5" style="fill:none;stroke:#651f3f;stroke-width:1;stroke-linecap:round;stroke-linejoin:round;stroke-miterlimit:4;stroke-dasharray:none;stroke-opacity:1" id="path1101"/></g><g id="g1103" transform="translate(476.3895,336.76172)"><path d="M 0,0 V -0.5" style="fill:none;stroke:#651f3f;stroke-width:1;stroke-linecap:round;stroke-linejoin:round;stroke-miterlimit:4;stroke-dasharray:none;stroke-opacity:1" id="path1105"/></g><g id="g1107" transform="translate(476.3895,334.25292)"><path d="M 0,0 V -1.507" style="fill:none;stroke:#651f3f;stroke-width:1;stroke-linecap:round;stroke-linejoin:round;stroke-miterlimit:4;stroke-dasharray:.502,2.009;stroke-dashoffset:0;stroke-opacity:1" id="path1109"/></g><g id="g1111" transform="translate(476.3895,331.74192)"><path d="M 0,0 V -0.5" style="fill:none;stroke:#651f3f;stroke-width:1;stroke-linecap:round;stroke-linejoin:round;stroke-miterlimit:4;stroke-dasharray:none;stroke-opacity:1" id="path1113"/></g><g id="g1115" transform="translate(494.2556,345.80402)"><path d="M 0,0 V -0.5" style="fill:none;stroke:#651f3f;stroke-width:1;stroke-linecap:round;stroke-linejoin:round;stroke-miterlimit:4;stroke-dasharray:none;stroke-opacity:1" id="path1117"/></g><g id="g1119" transform="translate(494.2556,341.86522)"><path d="M 0,0 V -2.579" style="fill:none;stroke:#651f3f;stroke-width:1;stroke-linecap:round;stroke-linejoin:round;stroke-miterlimit:4;stroke-dasharray:.86,3.439;stroke-dashoffset:0;stroke-opacity:1" id="path1121"/></g><g id="g1123" transform="translate(494.2556,337.56662)"><path d="M 0,0 V -0.5" style="fill:none;stroke:#651f3f;stroke-width:1;stroke-linecap:round;stroke-linejoin:round;stroke-miterlimit:4;stroke-dasharray:none;stroke-opacity:1" id="path1125"/></g><g id="g1143" transform="translate(-68.185298,-40.911179)"><g id="g1157"><g id="g1155" clip-path="url(#clipPath1149)" opacity=".25"><g id="g1153" transform="translate(82.8858,361.6625)"><path d="m 0,0 c 0,-2.558 -2.074,-4.632 -4.632,-4.632 -2.558,0 -4.631,2.074 -4.631,4.632 0,2.558 2.073,4.632 4.631,4.632 C -2.074,4.632 0,2.558 0,0" style="fill:#4f3058;fill-opacity:1;fill-rule:nonzero;stroke:none" id="path1151"/></g></g></g></g><g id="g1159" transform="translate(-68.185298,-40.911179)"><g id="g1173"><g id="g1171" clip-path="url(#clipPath1165)" opacity=".25"><g id="g1169" transform="translate(67.6743,361.6625)"><path d="m 0,0 c 0,-2.558 -2.074,-4.632 -4.632,-4.632 -2.558,0 -4.631,2.074 -4.631,4.632 0,2.558 2.073,4.632 4.631,4.632 C -2.074,4.632 0,2.558 0,0" style="fill:#4f3058;fill-opacity:1;fill-rule:nonzero;stroke:none" id="path1167"/></g></g></g></g><g id="g1175" transform="translate(-68.185298,-40.911179)"><g id="g1189"><g id="g1187" clip-path="url(#clipPath1181)" opacity=".25"><g id="g1185" transform="translate(52.4627,361.6625)"><path d="m 0,0 c 0,-2.558 -2.074,-4.632 -4.632,-4.632 -2.558,0 -4.631,2.074 -4.631,4.632 0,2.558 2.073,4.632 4.631,4.632 C -2.074,4.632 0,2.558 0,0" style="fill:#4f3058;fill-opacity:1;fill-rule:nonzero;stroke:none" id="path1183"/></g></g></g></g></g></g></g></g></svg>